<svg id="Layer_1" data-name="Layer 1" xmlns="http://www.w3.org/2000/svg" viewBox="0 0 431 512"><defs><style>.cls-1{fill:#316fea;}</style></defs><path class="cls-1" d="M229.85,398.77V99.34c0-3.92-3.81-7.09-8.53-7.09H80.39c-4.72,0-8.53,3.17-8.53,7.09V398.77c0,3.92,3.81,7.1,8.53,7.1H221.32C226,405.87,229.85,402.7,229.85,398.77Zm-17.06-7.09H88.93V106.43H212.79Z" transform="translate(-40.5)"/><path class="cls-1" d="M400.11,398.77V99.34c0-3.92-3.81-7.09-8.53-7.09H250.65c-4.72,0-8.53,3.17-8.53,7.09V398.77c0,3.92,3.81,7.1,8.53,7.1H391.58C396.3,405.87,400.11,402.7,400.11,398.77ZM383,391.68H259.18V106.43H383Z" transform="translate(-40.5)"/><path class="cls-1" d="M280.41,131.32h81.4v17.06h-81.4Z" transform="translate(-40.5)"/><path class="cls-1" d="M280.41,162.32h81.4v17.06h-81.4Z" transform="translate(-40.5)"/><path class="cls-1" d="M280.41,193.32h81.4v17.06h-81.4Z" transform="translate(-40.5)"/><path class="cls-1" d="M280.41,224.32h81.4v17.06h-81.4Z" transform="translate(-40.5)"/><path class="cls-1" d="M280.41,255.32h81.4v17.06h-81.4Z" transform="translate(-40.5)"/><path class="cls-1" d="M280.41,286.32h81.4v17.06h-81.4Z" transform="translate(-40.5)"/><path class="cls-1" d="M280.41,317.32h81.4v17.06h-81.4Z" transform="translate(-40.5)"/><path class="cls-1" d="M74.6,53.32H401.82V70.38H74.6Z" transform="translate(-40.5)"/><path class="cls-1" d="M463,47.59H433.43V8.53A8.52,8.52,0,0,0,424.9,0H49A8.52,8.52,0,0,0,40.5,8.53V465.4A8.52,8.52,0,0,0,49,473.93H92.75v29.54a8.52,8.52,0,0,0,8.53,8.53H463a8.52,8.52,0,0,0,8.53-8.53V56.12A8.53,8.53,0,0,0,463,47.59ZM57.57,17.07h358.8V456.86H57.57ZM454.43,494.93H109.82v-21H424.9a8.52,8.52,0,0,0,8.53-8.53V64.66h21Z" transform="translate(-40.5)"/></svg>